<svg width="1440" height="196" viewBox="0 0 1440 196" fill="none" xmlns="http://www.w3.org/2000/svg">
<g clip-path="url(#clip0_339_564)">
<mask id="mask0_339_564" style="mask-type:luminance" maskUnits="userSpaceOnUse" x="0" y="0" width="1440" height="196">
<path d="M1440 0H0V196H1440V0Z" fill="white"/>
</mask>
<g mask="url(#mask0_339_564)">
<path d="M1440 0H0V196H1440V0Z" fill="#374151"/>
<path d="M8.12967 154.361C-37.9005 158.543 139.234 -144.366 208.669 83.2899C228.96 149.817 469.998 44.5608 617.154 14.1863C707.911 -4.54694 718.911 67.2716 751.874 40.1673C767.85 27.0303 760.008 26.8409 793.904 44.6463C979.376 142.071 287.551 164.807 283.21 146.563C266.479 76.2427 283.21 102.8 283.21 102.8C288.366 62.3403 325.839 78.6008 343.171 58.6206C452.413 -67.3133 761.42 160.142 829.033 115.306C892.04 73.524 913.535 157.013 955.334 84.156C1033.1 -51.3803 1123.57 62.7579 1123.57 62.7579C1123.57 62.7579 1225.84 60.8952 1313.65 44.6463C1494.06 11.2592 1426.56 194.385 1426.56 194.385C1426.56 194.385 1378.31 94.5853 1309.89 163.753" fill="black"/>
<path d="M1292.92 152.031H-17.7725V207.125H1292.92V152.031Z" fill="black"/>
<path d="M1452.87 116.971H1284.03V222.151H1452.87V116.971Z" fill="black"/>
</g>
</g>
<defs>
<clipPath id="clip0_339_564">
<rect width="1440" height="196" fill="white"/>
</clipPath>
</defs>
</svg>
