<svg width="96" height="40" viewBox="0 0 96 40" fill="none" xmlns="http://www.w3.org/2000/svg">
<rect width="96" height="40" rx="20" fill="black"/>
<path d="M26.4609 7C16.8125 7 9 12.877 9 20.125C9 27.373 16.8125 33.25 26.4609 33.25C31.1953 33.25 35.4844 31.832 38.6328 29.5352C39.0234 29.248 39.125 28.8027 38.875 28.4395C38.625 28.0762 38.0859 27.8711 37.5469 27.9414C36.7812 28.041 36 28.0938 35.1953 28.0938C27.625 28.0938 21.4844 23.4766 21.4844 17.7812C21.4844 13.9258 24.2969 10.5684 28.4609 8.79883C28.9375 8.59375 29.1797 8.18359 29.0625 7.78516C28.9453 7.38672 28.4922 7.08789 27.9453 7.05273C27.4531 7.02344 26.9609 7.00586 26.4609 7.00586V7Z" fill="white"/>
<g clip-path="url(#clip0_252_516)">
<path d="M40.4997 7C40.5796 7 40.6525 7.05078 40.6872 7.13184L41.2827 8.51172L42.6126 8.73242C42.6907 8.74512 42.7558 8.80664 42.7801 8.8916C42.8044 8.97656 42.7844 9.06836 42.7289 9.13086L41.7645 10.207L41.9919 11.7266C42.0049 11.8145 41.9728 11.9033 41.9077 11.9561C41.8426 12.0088 41.7575 12.0146 41.6881 11.9727L40.4988 11.2578L39.3113 11.9717C39.241 12.0137 39.156 12.0078 39.0917 11.9551C39.0275 11.9023 38.9945 11.8135 39.0075 11.7256L39.235 10.2061L38.2705 9.13086C38.2141 9.06836 38.195 8.97559 38.2193 8.8916C38.2436 8.80762 38.3087 8.74609 38.3869 8.73242L39.7167 8.51172L40.3122 7.13184C40.3478 7.05078 40.4199 7 40.4997 7ZM40.4997 7.77148L40.044 8.82812C40.0136 8.89746 39.9554 8.94629 39.8869 8.95801L38.86 9.12793L39.6056 9.95898C39.6534 10.0127 39.6759 10.0889 39.6646 10.1641L39.4884 11.333L40.4016 10.7842C40.4633 10.7471 40.537 10.7471 40.5978 10.7842L41.511 11.333L41.3356 10.165C41.3244 10.0898 41.3461 10.0137 41.3947 9.95996L42.1403 9.12891L41.1134 8.95801C41.0457 8.94629 40.9867 8.89844 40.9563 8.82812L40.4997 7.77148Z" fill="white"/>
</g>
<g clip-path="url(#clip1_252_516)">
<path d="M58.4997 20C58.5796 20 58.6525 20.0508 58.6872 20.1318L59.2827 21.5117L60.6126 21.7324C60.6907 21.7451 60.7558 21.8066 60.7801 21.8916C60.8044 21.9766 60.7844 22.0684 60.7289 22.1309L59.7645 23.207L59.9919 24.7266C60.0049 24.8145 59.9728 24.9033 59.9077 24.9561C59.8426 25.0088 59.7575 25.0146 59.6881 24.9727L58.4988 24.2578L57.3113 24.9717C57.241 25.0137 57.156 25.0078 57.0917 24.9551C57.0275 24.9023 56.9945 24.8135 57.0075 24.7256L57.235 23.2061L56.2705 22.1309C56.2141 22.0684 56.195 21.9756 56.2193 21.8916C56.2436 21.8076 56.3087 21.7461 56.3869 21.7324L57.7167 21.5117L58.3122 20.1318C58.3478 20.0508 58.4199 20 58.4997 20ZM58.4997 20.7715L58.044 21.8281C58.0136 21.8975 57.9554 21.9463 57.8869 21.958L56.86 22.1279L57.6056 22.959C57.6534 23.0127 57.6759 23.0889 57.6646 23.1641L57.4884 24.333L58.4016 23.7842C58.4633 23.7471 58.537 23.7471 58.5978 23.7842L59.511 24.333L59.3356 23.165C59.3244 23.0898 59.3461 23.0137 59.3947 22.96L60.1403 22.1289L59.1134 21.958C59.0457 21.9463 58.9867 21.8984 58.9563 21.8281L58.4997 20.7715Z" fill="white"/>
</g>
<g clip-path="url(#clip2_252_516)">
<path d="M76.4997 7C76.5796 7 76.6525 7.05078 76.6872 7.13184L77.2827 8.51172L78.6126 8.73242C78.6907 8.74512 78.7558 8.80664 78.7801 8.8916C78.8044 8.97656 78.7844 9.06836 78.7289 9.13086L77.7645 10.207L77.9919 11.7266C78.0049 11.8145 77.9728 11.9033 77.9077 11.9561C77.8426 12.0088 77.7575 12.0146 77.6881 11.9727L76.4988 11.2578L75.3113 11.9717C75.241 12.0137 75.156 12.0078 75.0917 11.9551C75.0275 11.9023 74.9945 11.8135 75.0075 11.7256L75.235 10.2061L74.2705 9.13086C74.2141 9.06836 74.195 8.97559 74.2193 8.8916C74.2436 8.80762 74.3087 8.74609 74.3869 8.73242L75.7167 8.51172L76.3122 7.13184C76.3478 7.05078 76.4199 7 76.4997 7ZM76.4997 7.77148L76.044 8.82812C76.0136 8.89746 75.9554 8.94629 75.8869 8.95801L74.86 9.12793L75.6056 9.95898C75.6534 10.0127 75.6759 10.0889 75.6646 10.1641L75.4884 11.333L76.4016 10.7842C76.4633 10.7471 76.537 10.7471 76.5978 10.7842L77.511 11.333L77.3356 10.165C77.3244 10.0898 77.3461 10.0137 77.3947 9.95996L78.1403 9.12891L77.1134 8.95801C77.0457 8.94629 76.9867 8.89844 76.9563 8.82812L76.4997 7.77148Z" fill="white"/>
</g>
<g clip-path="url(#clip3_252_516)">
<path d="M80.4997 23C80.5796 23 80.6525 23.0508 80.6872 23.1318L81.2827 24.5117L82.6126 24.7324C82.6907 24.7451 82.7558 24.8066 82.7801 24.8916C82.8044 24.9766 82.7844 25.0684 82.7289 25.1309L81.7645 26.207L81.9919 27.7266C82.0049 27.8145 81.9728 27.9033 81.9077 27.9561C81.8426 28.0088 81.7575 28.0146 81.6881 27.9727L80.4988 27.2578L79.3113 27.9717C79.241 28.0137 79.156 28.0078 79.0917 27.9551C79.0275 27.9023 78.9945 27.8135 79.0075 27.7256L79.235 26.2061L78.2705 25.1309C78.2141 25.0684 78.195 24.9756 78.2193 24.8916C78.2436 24.8076 78.3087 24.7461 78.3869 24.7324L79.7167 24.5117L80.3122 23.1318C80.3478 23.0508 80.4199 23 80.4997 23ZM80.4997 23.7715L80.044 24.8281C80.0136 24.8975 79.9554 24.9463 79.8869 24.958L78.86 25.1279L79.6056 25.959C79.6534 26.0127 79.6759 26.0889 79.6646 26.1641L79.4884 27.333L80.4016 26.7842C80.4633 26.7471 80.537 26.7471 80.5978 26.7842L81.511 27.333L81.3356 26.165C81.3244 26.0898 81.3461 26.0137 81.3947 25.96L82.1403 25.1289L81.1134 24.958C81.0457 24.9463 80.9867 24.8984 80.9563 24.8281L80.4997 23.7715Z" fill="white"/>
</g>
<g clip-path="url(#clip4_252_516)">
<path d="M56.4997 5C56.5796 5 56.6525 5.05078 56.6872 5.13184L57.2827 6.51172L58.6126 6.73242C58.6907 6.74512 58.7558 6.80664 58.7801 6.8916C58.8044 6.97656 58.7844 7.06836 58.7289 7.13086L57.7645 8.20703L57.9919 9.72656C58.0049 9.81445 57.9728 9.90332 57.9077 9.95605C57.8426 10.0088 57.7575 10.0146 57.6881 9.97266L56.4988 9.25781L55.3113 9.97168C55.241 10.0137 55.156 10.0078 55.0917 9.95508C55.0275 9.90234 54.9945 9.81348 55.0075 9.72559L55.235 8.20605L54.2705 7.13086C54.2141 7.06836 54.195 6.97559 54.2193 6.8916C54.2436 6.80762 54.3087 6.74609 54.3869 6.73242L55.7167 6.51172L56.3122 5.13184C56.3478 5.05078 56.4199 5 56.4997 5ZM56.4997 5.77148L56.044 6.82812C56.0136 6.89746 55.9554 6.94629 55.8869 6.95801L54.86 7.12793L55.6056 7.95898C55.6534 8.0127 55.6759 8.08887 55.6646 8.16406L55.4884 9.33301L56.4016 8.78418C56.4633 8.74707 56.537 8.74707 56.5978 8.78418L57.511 9.33301L57.3356 8.16504C57.3244 8.08984 57.3461 8.01367 57.3947 7.95996L58.1403 7.12891L57.1134 6.95801C57.0457 6.94629 56.9867 6.89844 56.9563 6.82812L56.4997 5.77148Z" fill="white"/>
</g>
<g clip-path="url(#clip5_252_516)">
<path d="M43.4997 25C43.5796 25 43.6525 25.0508 43.6872 25.1318L44.2827 26.5117L45.6126 26.7324C45.6907 26.7451 45.7558 26.8066 45.7801 26.8916C45.8044 26.9766 45.7844 27.0684 45.7289 27.1309L44.7645 28.207L44.9919 29.7266C45.0049 29.8145 44.9728 29.9033 44.9077 29.9561C44.8426 30.0088 44.7575 30.0146 44.6881 29.9727L43.4988 29.2578L42.3113 29.9717C42.241 30.0137 42.156 30.0078 42.0917 29.9551C42.0275 29.9023 41.9945 29.8135 42.0075 29.7256L42.235 28.2061L41.2705 27.1309C41.2141 27.0684 41.195 26.9756 41.2193 26.8916C41.2436 26.8076 41.3087 26.7461 41.3869 26.7324L42.7167 26.5117L43.3122 25.1318C43.3478 25.0508 43.4199 25 43.4997 25ZM43.4997 25.7715L43.044 26.8281C43.0136 26.8975 42.9554 26.9463 42.8869 26.958L41.86 27.1279L42.6056 27.959C42.6534 28.0127 42.6759 28.0889 42.6646 28.1641L42.4884 29.333L43.4016 28.7842C43.4633 28.7471 43.537 28.7471 43.5978 28.7842L44.511 29.333L44.3356 28.165C44.3244 28.0898 44.3461 28.0137 44.3947 27.96L45.1403 27.1289L44.1134 26.958C44.0457 26.9463 43.9867 26.8984 43.9563 26.8281L43.4997 25.7715Z" fill="white"/>
</g>
<defs>
<clipPath id="clip0_252_516">
<rect width="5" height="5" fill="white" transform="translate(38 7)"/>
</clipPath>
<clipPath id="clip1_252_516">
<rect width="5" height="5" fill="white" transform="translate(56 20)"/>
</clipPath>
<clipPath id="clip2_252_516">
<rect width="5" height="5" fill="white" transform="translate(74 7)"/>
</clipPath>
<clipPath id="clip3_252_516">
<rect width="5" height="5" fill="white" transform="translate(78 23)"/>
</clipPath>
<clipPath id="clip4_252_516">
<rect width="5" height="5" fill="white" transform="translate(54 5)"/>
</clipPath>
<clipPath id="clip5_252_516">
<rect width="5" height="5" fill="white" transform="translate(41 25)"/>
</clipPath>
</defs>
</svg>
