<svg width="60" height="50" viewBox="0 0 60 50" fill="none" xmlns="http://www.w3.org/2000/svg">
<g clip-path="url(#clip0_399_564)">
<path d="M3.63803 0.498108C2.66303 -0.302674 1.2474 -0.117127 0.478652 0.898498C-0.290098 1.91412 -0.111973 3.38873 0.863027 4.18951L56.363 49.502C57.338 50.3028 58.7537 50.1172 59.5224 49.1016C60.2912 48.086 60.113 46.6114 59.138 45.8106L49.2755 37.7637C52.988 33.7989 55.5005 29.3555 56.7662 26.2012C57.0755 25.4297 57.0755 24.5704 56.7662 23.7989C55.3693 20.3126 52.4349 15.2344 48.0474 10.9962C43.6412 6.71881 37.5755 3.12506 30.0005 3.12506C23.6068 3.12506 18.2818 5.69342 14.1287 9.06256L3.63803 0.498108ZM17.7943 12.0508C21.188 9.54108 25.2662 7.81256 30.0005 7.81256C36.113 7.81256 41.138 10.7032 44.9912 14.4239C48.6005 17.92 51.0943 22.0704 52.3693 25.0001C51.188 27.7344 48.938 31.5235 45.7224 34.8536L40.6787 30.7325C41.5318 29.0137 42.0099 27.0704 42.0099 25.0001C42.0099 18.0958 36.638 12.5001 30.0099 12.5001C26.9912 12.5001 24.2255 13.6622 22.1162 15.5762L17.7943 12.0508ZM37.0224 27.754L29.3818 21.5137C29.7755 20.6837 30.0005 19.7364 30.0005 18.7501C30.0005 18.213 29.9349 17.6856 29.813 17.1876C29.8787 17.1876 29.9349 17.1876 30.0005 17.1876C34.1443 17.1876 37.5005 20.6837 37.5005 25.0001C37.5005 25.9669 37.3318 26.8946 37.0224 27.754ZM37.9037 40.4786C35.513 41.543 32.8787 42.1876 30.0005 42.1876C23.888 42.1876 18.863 39.2969 15.0099 35.5762C11.4005 32.0801 8.90678 27.9297 7.63178 25.0001C8.4099 23.2032 9.6474 20.9473 11.3255 18.6719L7.79115 15.7715C5.65365 18.6719 4.12553 21.5626 3.2349 23.7989C2.92553 24.5704 2.92553 25.4297 3.2349 26.2012C4.63178 29.6876 7.56615 34.7657 11.9537 39.004C16.3599 43.2813 22.4255 46.8751 30.0005 46.8751C34.4818 46.8751 38.4287 45.6153 41.8318 43.7012L37.9037 40.4786ZM18.0005 25.0001C18.0005 31.9044 23.3724 37.5001 30.0005 37.5001C31.2474 37.5001 32.4474 37.3047 33.5818 36.9337L28.313 32.6172C26.1099 32.0899 24.2724 30.5469 23.2787 28.4864L18.0193 24.17C18.0005 24.4434 17.9912 24.7169 17.9912 25.0001H18.0005Z" fill="#9095A1"/>
</g>
<defs>
<clipPath id="clip0_399_564">
<rect width="60" height="50" fill="white"/>
</clipPath>
</defs>
</svg>
