<svg width="96" height="40" viewBox="0 0 96 40" fill="none" xmlns="http://www.w3.org/2000/svg">
<rect width="96" height="40" rx="20" fill="#FFBA07"/>
<path d="M86.4091 19.8397C86.4091 24.2024 81.9077 27.9226 76.101 27.9226C70.2944 27.9226 65.793 24.2024 65.793 19.8397C65.793 15.477 70.2944 11.7568 76.101 11.7568C81.9077 11.7568 86.4091 15.477 86.4091 19.8397Z" fill="white"/>
<path d="M86.4091 19.8397C86.4091 24.2024 81.9077 27.9226 76.101 27.9226C70.2944 27.9226 65.793 24.2024 65.793 19.8397C65.793 15.477 70.2944 11.7568 76.101 11.7568C81.9077 11.7568 86.4091 15.477 86.4091 19.8397Z" stroke="white"/>
<path d="M86.4091 19.8397C86.4091 24.2024 81.9077 27.9226 76.101 27.9226C70.2944 27.9226 65.793 24.2024 65.793 19.8397C65.793 15.477 70.2944 11.7568 76.101 11.7568C81.9077 11.7568 86.4091 15.477 86.4091 19.8397Z" stroke="white"/>
<path d="M75.8984 9.81283V5" stroke="white"/>
<path d="M75.8984 9.81283V5" stroke="white"/>
<path d="M86.9098 12.8954L91.1953 9.49219" stroke="white"/>
<path d="M86.9098 12.8954L91.1953 9.49219" stroke="white"/>
<path d="M64.1234 12.8954L59.8379 9.49219" stroke="white"/>
<path d="M64.1234 12.8954L59.8379 9.49219" stroke="white"/>
<path d="M61.0504 29.9007L65.3359 26.4976" stroke="white"/>
<path d="M61.0504 29.9007L65.3359 26.4976" stroke="white"/>
<path d="M91.1937 29.9007L86.9082 26.4976" stroke="white"/>
<path d="M91.1937 29.9007L86.9082 26.4976" stroke="white"/>
<path d="M62.0606 19.7593H56" stroke="white"/>
<path d="M62.0606 19.7593H56" stroke="white"/>
<path d="M96.0001 19.7593H89.9395" stroke="white"/>
<path d="M96.0001 19.7593H89.9395" stroke="white"/>
<path d="M76 34.9998V30.187" stroke="white"/>
<path d="M76 34.9998V30.187" stroke="white"/>
</svg>
