<?xml version="1.0" encoding="UTF-8" standalone="no"?>
<svg
   width="1440"
   height="196"
   viewBox="0 0 1440 196"
   fill="none"
   version="1.1"
   id="svg1"
   sodipodi:docname="LineGraphicsLight.svg"
   inkscape:version="1.3.2 (091e20e, 2023-11-25, custom)"
   xmlns:inkscape="http://www.inkscape.org/namespaces/inkscape"
   xmlns:sodipodi="http://sodipodi.sourceforge.net/DTD/sodipodi-0.dtd"
   xmlns="http://www.w3.org/2000/svg"
   xmlns:svg="http://www.w3.org/2000/svg">
  <defs
     id="defs1" />
  <sodipodi:namedview
     id="namedview1"
     pagecolor="#ffffff"
     bordercolor="#000000"
     borderopacity="0.25"
     inkscape:showpageshadow="2"
     inkscape:pageopacity="0.0"
     inkscape:pagecheckerboard="0"
     inkscape:deskcolor="#d1d1d1"
     inkscape:zoom="0.58958333"
     inkscape:cx="720"
     inkscape:cy="-173.85159"
     inkscape:window-width="1366"
     inkscape:window-height="715"
     inkscape:window-x="-8"
     inkscape:window-y="-8"
     inkscape:window-maximized="1"
     inkscape:current-layer="svg1" />
  <path
     id="rect1"
     style="display:inline;fill:#d1d5db;fill-opacity:1;stroke-width:0;stroke-dasharray:none"
     d="m -2,0.999512 c 0,65.333333 0,130.666668 0,195.999998 481.33333,0 962.66667,0 1444,0 0,-66 0,-131.999998 0,-197.999998 -481.33333,0 -962.66667,0 -1444,0 0,0.6666667 0,1.33333333 0,2 z" />
  <path
     d="M 0,195 C 96.236542,135.83799 236.53316,55.504337 324.67003,19.632576 397.36126,-9.9527969 434.57244,-9.294349 382.323,58.4292 237.823,245.726 785.72,31.1151 704.438,136.469 c -37.60744,48.74609 72.36617,55.7254 184.70702,46.06024 130.46158,-11.22416 264.11568,-44.89539 173.53498,-61.66824 -28.6588,-5.30657 -34.2547,-12.62351 -24.6732,-20.80724 13.4918,-11.523624 57.0772,-24.765917 108.7396,-36.534029 C 1274.2175,34.483254 1450.8616,14.42158 1345.96,51.2958 c -28.4252,9.991278 -46.3224,19.774975 -56.1765,28.968215 -14.5353,13.560424 -11.5711,25.836155 0.917,35.598435 31.9484,24.97499 126.2302,33.49942 149.2995,4.99855"
     stroke="#000000"
     id="path1"
     style="display:none;opacity:1;mix-blend-mode:normal;fill:#fefcfe;fill-opacity:0;stroke:#ffffff;stroke-width:5;stroke-dasharray:none;stroke-opacity:1"
     sodipodi:nodetypes="csccscsscssc" />
  <text
     xml:space="preserve"
     style="fill:#808080;fill-opacity:0;stroke:#000000;stroke-width:0;stroke-dasharray:none;stroke-opacity:1"
     x="507.13782"
     y="-471.51944"
     id="text10"><tspan
       sodipodi:role="line"
       id="tspan10"
       x="507.13782"
       y="-471.51944" /></text>
  <path
     style="fill:#ffffff;fill-opacity:1;stroke:#000000;stroke-width:0;stroke-dasharray:none;stroke-opacity:1"
     d="M -1.6961131,95.930488 V 0 L 184.4523,0.09088028 370.60071,0.18176057 357.87986,4.0431311 C 294.70189,23.220592 152.88921,97.248648 -0.42402827,191.0824 -1.1236749,191.51062 -1.6961131,148.69226 -1.6961131,95.930488 Z"
     id="path14" />
  <path
     style="fill:#ffffff;fill-opacity:1;stroke:#000000;stroke-width:0;stroke-dasharray:none;stroke-opacity:1"
     d="m 767.69053,181.32438 c -31.48953,-2.59472 -52.8152,-8.7531 -62.53152,-18.05773 -5.77701,-5.53223 -5.91028,-11.01914 -0.48441,-19.9451 11.96031,-19.67558 13.48653,-25.49869 8.53569,-32.567 -4.13021,-5.8967 -13.48215,-7.99026 -34.76506,-7.7826 -23.6966,0.2312 -45.12117,2.95151 -116.92744,14.84643 -91.65643,15.18316 -135.25024,19.55622 -161.78227,16.22899 -18.70064,-2.34513 -26.79035,-5.5348 -33.5429,-13.22554 -4.72963,-5.38675 -5.21499,-6.91339 -4.51477,-14.2007 1.05544,-10.98418 8.68227,-25.833349 24.27222,-47.257172 21.19999,-29.133181 27.32581,-44.039466 22.26625,-54.1816076 L 405.63102,0 h 518.03254 518.03254 v 60.312114 c 0,39.538149 -0.5808,59.953176 -1.6861,59.270026 -0.9274,-0.57315 -4.1712,0.82984 -7.2085,3.11775 -18.3831,13.8475 -62.7662,16.48498 -103.3143,6.13949 -26.4836,-6.75705 -45.538,-19.35581 -45.5233,-30.099811 0.02,-14.745677 18.6776,-27.291028 69.5343,-46.75571 19.6182,-7.508548 27.1378,-11.942401 27.1378,-16.001332 0,-6.157164 -3.4003,-7.148673 -24.5088,-7.146547 -59.7682,0.006 -215.8302,28.260568 -281.8679,51.031346 -33.1961,11.446485 -43.6223,18.137639 -42.6944,27.399524 0.7695,7.68076 6.8186,11.11561 29.4239,16.70779 22.9196,5.66993 29.3251,8.82064 26.0226,12.7999 -3.3589,4.04728 -12.9049,8.32291 -31.1847,13.96767 -71.05565,21.94169 -211.75867,36.87563 -288.13617,30.58217 z"
     id="path15" />
</svg>
