<svg width="1440" height="196" viewBox="0 0 1440 196" fill="none" xmlns="http://www.w3.org/2000/svg">
<g clip-path="url(#clip0_350_583)">
<path d="M-2 0.999512C-2 66.3328 -2 131.666 -2 197C479.333 197 960.667 197 1442 197C1442 131 1442 64.9995 1442 -1.00049C960.667 -1.00049 479.333 -1.00049 -2 -1.00049C-2 -0.333822 -2 0.332845 -2 0.999512Z" fill="#374151"/>
<path d="M-1.69604 95.9305V0L184.452 0.0908803L370.601 0.181761L357.88 4.04313C294.702 23.2206 152.889 97.2486 -0.42396 191.082C-1.12361 191.511 -1.69604 148.692 -1.69604 95.9305Z" fill="#007AFF"/>
<path d="M767.69 181.324C736.201 178.73 714.875 172.571 705.159 163.267C699.382 157.734 699.249 152.248 704.674 143.322C716.635 123.646 718.161 117.823 713.21 110.755C709.08 104.858 699.728 102.764 678.445 102.972C654.749 103.203 633.324 105.923 561.518 117.818C469.861 133.002 426.267 137.375 399.735 134.047C381.035 131.702 372.945 128.513 366.192 120.822C361.463 115.435 360.978 113.908 361.678 106.621C362.733 95.637 370.36 80.7878 385.95 59.364C407.15 30.2308 413.276 15.3245 408.216 5.18235L405.631 0H923.663H1441.7V60.3121C1441.7 99.8503 1441.12 120.265 1440.01 119.582C1439.08 119.009 1435.84 120.412 1432.8 122.7C1414.42 136.547 1370.04 139.185 1329.49 128.839C1303 122.082 1283.95 109.484 1283.96 98.7396C1283.98 83.9939 1302.64 71.4485 1353.5 51.9839C1373.12 44.4753 1380.64 40.0415 1380.64 35.9825C1380.64 29.8254 1377.24 28.8339 1356.13 28.836C1296.36 28.842 1140.3 57.0965 1074.26 79.8673C1041.06 91.3138 1030.64 98.005 1031.56 107.267C1032.33 114.948 1038.38 118.382 1060.99 123.975C1083.91 129.645 1090.31 132.795 1087.01 136.775C1083.65 140.822 1074.11 145.097 1055.83 150.742C984.771 172.684 844.068 187.618 767.69 181.324Z" fill="#007AFF"/>
</g>
<defs>
<clipPath id="clip0_350_583">
<rect width="1440" height="196" fill="white"/>
</clipPath>
</defs>
</svg>
