<svg width="20" height="20" viewBox="0 0 20 20" fill="none" xmlns="http://www.w3.org/2000/svg">
<path d="M14.9999 9.28564L4.99986 9.28564C4.21088 9.28564 3.57129 9.92524 3.57129 10.7142L3.57129 16.4285C3.57129 17.2175 4.21088 17.8571 4.99986 17.8571L14.9999 17.8571C15.7888 17.8571 16.4284 17.2175 16.4284 16.4285V10.7142C16.4284 9.92524 15.7888 9.28564 14.9999 9.28564Z" stroke="#9095A1" stroke-width="1.71429" stroke-miterlimit="10" stroke-linecap="square"/>
<path d="M9.99986 15.0002C10.7888 15.0002 11.4284 14.3606 11.4284 13.5716C11.4284 12.7827 10.7888 12.1431 9.99986 12.1431C9.21088 12.1431 8.57129 12.7827 8.57129 13.5716C8.57129 14.3606 9.21088 15.0002 9.99986 15.0002Z" stroke="#9095A1" stroke-width="1.71429" stroke-miterlimit="10" stroke-linecap="square"/>
<path d="M13.5716 6.42847V5.71418C13.5809 4.77649 13.2174 3.87349 12.5611 3.20375C11.9047 2.53401 11.0093 2.15237 10.0716 2.14275H10.0001C9.06245 2.13342 8.15945 2.4969 7.48971 3.15324C6.81996 3.80959 6.43832 4.70507 6.42871 5.64275V6.42847" stroke="#9095A1" stroke-width="1.71429" stroke-miterlimit="10" stroke-linecap="square"/>
</svg>
