<svg width="50" height="50" viewBox="0 0 50 50" fill="none" xmlns="http://www.w3.org/2000/svg">
<g clip-path="url(#clip0_374_572)">
<path d="M16.1035 2.40235C15.3516 0.585942 13.3691 -0.380855 11.4746 0.136723L2.88086 2.48047C1.18164 2.94922 0 4.49219 0 6.25C0 30.4102 19.5898 50 43.75 50C45.5078 50 47.0508 48.8184 47.5195 47.1191L49.8633 38.5254C50.3809 36.6309 49.4141 34.6484 47.5977 33.8965L38.2227 29.9902C36.6309 29.3262 34.7852 29.7852 33.7012 31.1231L29.7559 35.9375C22.8809 32.6856 17.3145 27.1191 14.0625 20.2441L18.877 16.3086C20.2148 15.2148 20.6738 13.3789 20.0098 11.7871L16.1035 2.41211V2.40235Z" fill="white"/>
</g>
<defs>
<clipPath id="clip0_374_572">
<rect width="50" height="50" fill="white"/>
</clipPath>
</defs>
</svg>
