<svg width="125" height="118" viewBox="0 0 125 118" fill="none" xmlns="http://www.w3.org/2000/svg">
<path d="M0 44.4688C0 20.3832 14.9833 0.875 33.4821 0.875H35.7143C40.6529 0.875 44.6429 6.06992 44.6429 12.5C44.6429 18.9301 40.6529 24.125 35.7143 24.125H33.4821C24.8605 24.125 17.8571 33.2434 17.8571 44.4688V47.375H35.7143C45.5636 47.375 53.5714 57.8012 53.5714 70.625V93.875C53.5714 106.699 45.5636 117.125 35.7143 117.125H17.8571C8.00781 117.125 0 106.699 0 93.875V82.25V70.625V44.4688ZM71.4286 44.4688C71.4286 20.3832 86.4118 0.875 104.911 0.875H107.143C112.081 0.875 116.071 6.06992 116.071 12.5C116.071 18.9301 112.081 24.125 107.143 24.125H104.911C96.2891 24.125 89.2857 33.2434 89.2857 44.4688V47.375H107.143C116.992 47.375 125 57.8012 125 70.625V93.875C125 106.699 116.992 117.125 107.143 117.125H89.2857C79.4364 117.125 71.4286 106.699 71.4286 93.875V82.25V70.625V44.4688Z" fill="black" fill-opacity="0.7"/>
</svg>
