<svg width="259" height="60" viewBox="0 0 259 60" fill="none" xmlns="http://www.w3.org/2000/svg">
<path d="M30.9575 10L35.4478 23.8197H49.9786L38.2229 32.3607L42.7132 46.1803L30.9575 37.6393L19.2018 46.1803L23.6921 32.3607L11.9364 23.8197H26.4672L30.9575 10Z" fill="#007AFF"/>
<path d="M80.9575 10L85.4478 23.8197H99.9786L88.2229 32.3607L92.7132 46.1803L80.9575 37.6393L69.2018 46.1803L73.6921 32.3607L61.9364 23.8197H76.4672L80.9575 10Z" fill="#007AFF"/>
<path d="M130.958 10L135.448 23.8197H149.979L138.223 32.3607L142.713 46.1803L130.958 37.6393L119.202 46.1803L123.692 32.3607L111.936 23.8197H126.467L130.958 10Z" fill="#007AFF"/>
<path d="M180.958 10L185.448 23.8197H199.979L188.223 32.3607L192.713 46.1803L180.958 37.6393L169.202 46.1803L173.692 32.3607L161.936 23.8197H176.467L180.958 10Z" fill="#007AFF"/>
<path d="M229.979 11.9099L234.469 25.7296H249L237.244 34.2706L241.734 48.0903L229.979 39.5492L218.223 48.0903L222.713 34.2706L210.958 25.7296H225.488L229.979 11.9099Z" fill="#007AFF"/>
</svg>
