<svg width="198" height="187" viewBox="0 0 198 187" fill="none" xmlns="http://www.w3.org/2000/svg">
<circle cx="99.5" cy="92.5" r="53.5" fill="#87ED06"/>
<path d="M98.5 30V0" stroke="#87ED06"/>
<path d="M98.5 30V0" stroke="#87ED06"/>
<path d="M153 49.2132L174.213 28" stroke="#87ED06"/>
<path d="M153 49.2132L174.213 28" stroke="#87ED06"/>
<path d="M40.2132 49.2132L19 28" stroke="#87ED06"/>
<path d="M40.2132 49.2132L19 28" stroke="#87ED06"/>
<path d="M25.0002 155.213L46.2134 134" stroke="#87ED06"/>
<path d="M25.0002 155.213L46.2134 134" stroke="#87ED06"/>
<path d="M174.213 155.213L153 134" stroke="#87ED06"/>
<path d="M174.213 155.213L153 134" stroke="#87ED06"/>
<path d="M30 92H0" stroke="#87ED06"/>
<path d="M30 92H0" stroke="#87ED06"/>
<path d="M198 92H168" stroke="#87ED06"/>
<path d="M198 92H168" stroke="#87ED06"/>
<path d="M99 187V157" stroke="#87ED06"/>
<path d="M99 187V157" stroke="#87ED06"/>
</svg>
