<svg width="21" height="20" viewBox="0 0 21 20" fill="none" xmlns="http://www.w3.org/2000/svg">
<path d="M7.18952 15.7656C7.18952 15.8438 7.09677 15.9062 6.97984 15.9062C6.84677 15.918 6.75403 15.8555 6.75403 15.7656C6.75403 15.6875 6.84677 15.625 6.96371 15.625C7.08468 15.6133 7.18952 15.6758 7.18952 15.7656ZM5.93548 15.5898C5.90726 15.668 5.9879 15.7578 6.10887 15.7812C6.21371 15.8203 6.33468 15.7812 6.35887 15.7031C6.38306 15.625 6.30645 15.5352 6.18548 15.5C6.08065 15.4727 5.96371 15.5117 5.93548 15.5898ZM7.71774 15.5234C7.60081 15.5508 7.52016 15.625 7.53226 15.7148C7.54435 15.793 7.64919 15.8438 7.77016 15.8164C7.8871 15.7891 7.96774 15.7148 7.95564 15.6367C7.94355 15.5625 7.83468 15.5117 7.71774 15.5234ZM10.371 0.554688C4.77823 0.554688 0.5 4.66797 0.5 10.0859C0.5 14.418 3.31452 18.125 7.33468 19.4297C7.85081 19.5195 8.03226 19.2109 8.03226 18.957C8.03226 18.7148 8.02016 17.3789 8.02016 16.5586C8.02016 16.5586 5.19758 17.1445 4.60484 15.3945C4.60484 15.3945 4.14516 14.2578 3.48387 13.9648C3.48387 13.9648 2.56048 13.3516 3.54839 13.3633C3.54839 13.3633 4.55242 13.4414 5.10484 14.3711C5.9879 15.8789 7.46774 15.4453 8.04435 15.1875C8.1371 14.5625 8.39919 14.1289 8.68952 13.8711C6.43548 13.6289 4.16129 13.3125 4.16129 9.55469C4.16129 8.48047 4.46774 7.94141 5.1129 7.25391C5.00806 7 4.66532 5.95312 5.21774 4.60156C6.06048 4.34766 8 5.65625 8 5.65625C8.80645 5.4375 9.67339 5.32422 10.5323 5.32422C11.3911 5.32422 12.2581 5.4375 13.0645 5.65625C13.0645 5.65625 15.004 4.34375 15.8468 4.60156C16.3992 5.95703 16.0565 7 15.9516 7.25391C16.5968 7.94531 16.9919 8.48438 16.9919 9.55469C16.9919 13.3242 14.6169 13.625 12.3629 13.8711C12.7339 14.1797 13.0484 14.7656 13.0484 15.6836C13.0484 17 13.0363 18.6289 13.0363 18.9492C13.0363 19.2031 13.2218 19.5117 13.7339 19.4219C17.7661 18.125 20.5 14.418 20.5 10.0859C20.5 4.66797 15.9637 0.554688 10.371 0.554688ZM4.41935 14.0273C4.36694 14.0664 4.37903 14.1562 4.44758 14.2305C4.5121 14.293 4.60484 14.3203 4.65726 14.2695C4.70968 14.2305 4.69758 14.1406 4.62903 14.0664C4.56452 14.0039 4.47177 13.9766 4.41935 14.0273ZM3.98387 13.7109C3.95565 13.7617 3.99597 13.8242 4.07661 13.8633C4.14113 13.9023 4.22177 13.8906 4.25 13.8359C4.27823 13.7852 4.2379 13.7227 4.15726 13.6836C4.07661 13.6602 4.0121 13.6719 3.98387 13.7109ZM5.29032 15.1016C5.22581 15.1523 5.25 15.2695 5.34274 15.3438C5.43548 15.4336 5.55242 15.4453 5.60484 15.3828C5.65726 15.332 5.63306 15.2148 5.55242 15.1406C5.46371 15.0508 5.34274 15.0391 5.29032 15.1016ZM4.83065 14.5273C4.76613 14.5664 4.76613 14.668 4.83065 14.7578C4.89516 14.8477 5.00403 14.8867 5.05645 14.8477C5.12097 14.7969 5.12097 14.6953 5.05645 14.6055C5 14.5156 4.89516 14.4766 4.83065 14.5273Z" fill="black"/>
</svg>
