<svg width="21" height="20" viewBox="0 0 21 20" fill="none" xmlns="http://www.w3.org/2000/svg">
<g clip-path="url(#clip0_127_180)">
<path d="M20.5 10.2266C20.5 15.7539 16.5287 19.6875 10.6639 19.6875C5.04098 19.6875 0.5 15.3594 0.5 10C0.5 4.64062 5.04098 0.3125 10.6639 0.3125C13.4016 0.3125 15.7049 1.26953 17.4795 2.84766L14.7131 5.38281C11.0943 2.05469 4.36475 4.55469 4.36475 10C4.36475 13.3789 7.19672 16.1172 10.6639 16.1172C14.6885 16.1172 16.1967 13.3672 16.4344 11.9414H10.6639V8.60938H20.3402C20.4344 9.10547 20.5 9.58203 20.5 10.2266Z" fill="#DB4437"/>
</g>
<defs>
<clipPath id="clip0_127_180">
<rect width="20" height="20" fill="white" transform="translate(0.5)"/>
</clipPath>
</defs>
</svg>
