<svg width="40" height="40" viewBox="0 0 40 40" fill="none" xmlns="http://www.w3.org/2000/svg">
<g clip-path="url(#clip0_74_217)">
<path d="M20 0.625C8.95161 0.625 0 9.29688 0 20C0 30.7031 8.95161 39.375 20 39.375C31.0484 39.375 40 30.7031 40 20C40 9.29688 31.0484 0.625 20 0.625ZM29.2742 13.8047C28.9758 16.8672 27.6694 24.3047 27.0081 27.7344C26.7258 29.1875 26.1774 29.6719 25.6452 29.7188C24.4839 29.8203 23.6048 28.9766 22.4758 28.2578C20.7177 27.1406 19.7177 26.4453 18.0161 25.3516C16.0403 24.0938 17.3226 23.3984 18.4435 22.2656C18.7419 21.9688 23.8548 17.4609 23.9516 17.0547C23.9677 17 23.9758 16.8125 23.8548 16.7109C23.7339 16.6094 23.5645 16.6484 23.4435 16.6719C23.2661 16.7083 20.4543 18.5078 15.0081 22.0703C14.2124 22.6016 13.4892 22.8594 12.8387 22.8438C12.121 22.8281 10.75 22.4531 9.72581 22.1328C8.47581 21.7422 7.47581 21.5312 7.56452 20.8594C7.60753 20.5104 8.10484 20.1536 9.05645 19.7891C14.8844 17.3307 18.7715 15.7083 20.7177 14.9219C26.2742 12.6875 27.4274 12.2969 28.1774 12.2812C28.3468 12.2812 28.7097 12.3203 28.9516 12.5078C29.1095 12.6423 29.2101 12.8289 29.2339 13.0312C29.2775 13.2868 29.291 13.5462 29.2742 13.8047Z" fill="white"/>
</g>
<defs>
<clipPath id="clip0_74_217">
<rect width="40" height="40" fill="white"/>
</clipPath>
</defs>
</svg>
