<svg width="40" height="40" viewBox="0 0 40 40" fill="none" xmlns="http://www.w3.org/2000/svg">
<g clip-path="url(#clip0_374_568)">
<path d="M40 16.3984C36.0678 16.4058 32.2324 15.3318 29.0357 13.3281V27.2969C29.0348 29.884 28.1312 32.4091 26.4457 34.5346C24.7601 36.6602 22.3731 38.2847 19.6038 39.1911C16.8345 40.0974 13.815 40.2422 10.9491 39.6063C8.08311 38.9703 5.50741 37.5838 3.56642 35.6323C1.62543 33.6807 0.411691 31.2572 0.0875309 28.6857C-0.236629 26.1142 0.344244 23.5174 1.75246 21.2426C3.16068 18.9678 5.32911 17.1235 7.96774 15.9562C10.6064 14.789 13.5894 14.3545 16.5179 14.7109V21.7344C15.1788 21.3655 13.7408 21.3763 12.4092 21.7652C11.0776 22.1541 9.92042 22.9012 9.10295 23.8998C8.28548 24.8984 7.8495 26.0974 7.85726 27.3258C7.86502 28.5541 8.31612 29.7489 9.14616 30.7395C9.97619 31.7302 11.1427 32.466 12.4792 32.842C13.8156 33.2179 15.2537 33.2148 16.588 32.8331C17.9223 32.4513 19.0846 31.7104 19.909 30.7162C20.7335 29.722 21.1778 28.5252 21.1786 27.2969V0H29.0357C29.0313 0.581456 29.0881 1.16203 29.2054 1.73438C29.4786 3.01016 30.0463 4.22379 30.8738 5.30109C31.7012 6.37839 32.7711 7.29674 34.0179 8C35.7927 9.02566 37.8731 9.57177 40 9.57031V16.3984Z" fill="white"/>
</g>
<defs>
<clipPath id="clip0_374_568">
<rect width="40" height="40" fill="white"/>
</clipPath>
</defs>
</svg>
