<svg width="40" height="40" viewBox="0 0 40 40" fill="none" xmlns="http://www.w3.org/2000/svg">
<g clip-path="url(#clip0_74_219)">
<path d="M35.8906 11.8516C35.9141 12.2031 35.9141 12.5625 35.9141 12.9141C35.9141 23.75 27.6641 36.2422 12.5859 36.2422C7.9375 36.2422 3.625 34.8984 0 32.5625C0.65625 32.6406 1.29688 32.6641 1.97656 32.6641C5.8125 32.6641 9.33594 31.3672 12.1562 29.1641C8.55469 29.0859 5.53125 26.7266 4.49219 23.4766C5 23.5547 5.50781 23.6016 6.03906 23.6016C6.77344 23.6016 7.50781 23.5 8.19531 23.3203C4.4375 22.5625 1.625 19.2578 1.625 15.2734V15.1719C2.71875 15.7812 3.98437 16.1641 5.32812 16.2109C3.11719 14.7422 1.67188 12.2266 1.67188 9.38281C1.67188 7.85938 2.07812 6.46094 2.78906 5.24219C6.82812 10.2188 12.8906 13.4688 19.6953 13.8203C19.5703 13.2109 19.4922 12.5781 19.4922 11.9453C19.4922 7.42969 23.1484 3.75 27.6875 3.75C30.0469 3.75 32.1797 4.74219 33.6797 6.33594C35.5312 5.98438 37.3125 5.29688 38.8828 4.35937C38.2734 6.26562 36.9766 7.85938 35.2812 8.875C36.9297 8.69531 38.5312 8.24219 40 7.60938C38.8828 9.23438 37.4844 10.6797 35.8906 11.8516Z" fill="white"/>
</g>
<defs>
<clipPath id="clip0_74_219">
<rect width="40" height="40" fill="white"/>
</clipPath>
</defs>
</svg>
