<svg width="40" height="40" viewBox="0 0 40 40" fill="none" xmlns="http://www.w3.org/2000/svg">
<path d="M39.1651 6.26042C38.7038 3.79167 37.349 1.85417 35.628 1.19792C32.5082 0 20 0 20 0C20 0 7.49176 0 4.37203 1.19792C2.65104 1.85417 1.29623 3.79167 0.834859 6.26042C0 10.7292 0 20.0417 0 20.0417C0 20.0417 0 29.3542 0.834859 33.8229C1.29623 36.2917 2.65104 38.1458 4.37203 38.8021C7.49176 40 20 40 20 40C20 40 32.5082 40 35.628 38.8021C37.349 38.1458 38.7038 36.2813 39.1651 33.8229C40 29.3542 40 20.0417 40 20.0417C40 20.0417 40 10.7292 39.1651 6.26042ZM15.9136 28.5V11.5833L26.364 20.0417L15.9136 28.5Z" fill="black"/>
</svg>
